<svg width="40" height="40" viewBox="0 0 40 40" xmlns="http://www.w3.org/2000/svg">
<rect width="40" height="40" rx="4" fill="url(#paint0_linear)"/>
<path d="M30.8061 25.1125C30.8061 27.0399 30.101 28.6971 28.6906 30.0839C27.2803 31.4472 25.2471 32.2934 22.5909 32.6225V36.5714H19.0651V32.7283C17.3257 32.6343 15.6685 32.3287 14.0937 31.8116C12.5188 31.2944 11.2495 30.6598 10.2858 29.9076L12.225 25.6061C13.1182 26.2643 14.1642 26.8166 15.363 27.2632C16.5618 27.7098 17.7958 27.9919 19.0651 28.1094V22.2213C17.3962 21.8217 15.9859 21.3751 14.8341 20.8815C13.6823 20.3879 12.7186 19.6709 11.9429 18.7307C11.1672 17.767 10.7794 16.4977 10.7794 14.9228C10.7794 12.9719 11.4846 11.303 12.8949 9.91613C14.3287 8.50579 16.3855 7.64784 19.0651 7.34227V3.42859H22.5909V7.27175C25.4821 7.50681 27.8679 8.22373 29.7484 9.42251L27.9855 13.7593C26.2225 12.7485 24.4244 12.1374 22.5909 11.9259V17.9198C24.2363 18.2959 25.6231 18.7307 26.7514 19.2243C27.9032 19.6944 28.8669 20.4114 29.6426 21.3751C30.4183 22.3153 30.8061 23.5611 30.8061 25.1125ZM16.456 14.6407C16.456 15.2284 16.6793 15.7102 17.1259 16.0863C17.5725 16.4624 18.2189 16.7798 19.0651 17.0383V12.0316C18.1719 12.2432 17.5137 12.584 17.0906 13.0541C16.6675 13.5007 16.456 14.0296 16.456 14.6407ZM22.5909 27.9684C23.4371 27.7804 24.0718 27.4748 24.4949 27.0517C24.918 26.6286 25.1295 26.1232 25.1295 25.5356C25.1295 24.9479 24.9062 24.4661 24.4596 24.09C24.0365 23.7139 23.4136 23.3848 22.5909 23.1028V27.9684Z" fill="white"/>
<defs>
<linearGradient id="paint0_linear" x1="0" y1="0" x2="40" y2="40" gradientUnits="userSpaceOnUse">
<stop stop-color="#F64E60"/>
<stop offset="0.833333" stop-color="#8950FC"/>
</linearGradient>
</defs>
</svg>
